<svg id="eebd5bf3-8721-4d13-a30b-63653552c7b7" data-name="Layer 0 Image" xmlns="http://www.w3.org/2000/svg" viewBox="0 0 120 97.92"><title>Gabii Project Logo with primary dark colors</title><path d="M120,48.48c0,15.88,0,31.77,0,47.65,0,1.58-.46,1.79-1.87,1.79q-44.16-.06-88.32,0c.55-2.53,1-5.16.43-7.65-.71-2.92-2-5.69-3-8.54-.47-1.37-.89-2.74-2.43-3.66A8.43,8.43,0,0,0,26,83,14.55,14.55,0,0,1,27.93,92a14.92,14.92,0,0,0,.93,5.94H15.5c1.1-4,1.6-8-.79-11.87-1.12,1-1,2.26-1.07,3.52-.09,2.78.86,5.57-.05,8.35H.72V73.24c2,.79,2.67.85,5.59.58,4.12-.38,4-.38,4.23,3.85a11.31,11.31,0,0,0,3.26,7.39c.47-2.11-.3-3.44-.88-4.79a11,11,0,0,1-1.27-3.33c-.12-1.44.07-2.86,1.77-3.17s2.71.64,3,2.28c.27,1.35.46,2.72.72,4.26,1.58-1,1.35-2.14,1-3.3a17.1,17.1,0,0,1-1-3.17c-.1-1-.47-2.5,1.37-2.32,1.54.16,3.88-1,4.13,1.78.12,1.4.81,2.35,1.21,3.63,1.85-1.31.73-2.53.29-3.72S23,70.72,23.9,69.63c1.16-1.35,4.55-1.36,6.15-.3.53-2.5,1.94-3.41,4.28-2.6,2.06.71,2.79,2.58,3.49,4.43,1.57,7.22,5.26,13.6,8,20.69a9.67,9.67,0,0,0-.36-5.5c-1.7-5.12-4.37-9.8-6.46-14.73-.29-.68-.67-.82-1.26-.4,0-1,.52-2-.15-3.17-.51-.86-.86-2.51-.4-3.11,1.18-1.48,3.16-1.06,4.89-1.15,1.39-.07,1.41.89,1.67,1.83,2.09,7.49,5.71,14.39,8.35,21.69.77-3-.32-5.77-1.51-8.44-1.91-4.28-4.35-8.35-4.92-13.13a2.64,2.64,0,0,0-.47-1c-1.15-1.8-.16-4.58,1.88-4.69a1.71,1.71,0,0,0,1.57-1c1.28-1.79,2.9-1.83,4.56-.68,1.09.75,2,1.71,3.2,2.72.33-1.48-.49-2.33-1.16-3.13-1.19-1.42-.68-2.44.56-3.39a14.15,14.15,0,0,0,1.68-1.26c.54-.57,1.05-.58,1.31,0,.61,1.47,1.83,2.57,2.44,4,2.12,4.89,5.45,9.1,7.61,14a1.5,1.5,0,0,0,1.9,1,14.2,14.2,0,0,0-2.35-5.26A68.46,68.46,0,0,1,62.51,56.8a6.29,6.29,0,0,0-2-2.85c-1-.71-1.16-2.12,0-2.57,3.62-1.39,5.89-5.17,10-5.57a2.31,2.31,0,0,0,2-1.5c.91-2.45,2.4-1.47,3.74-.59a11,11,0,0,1,2,2c.3.34.68.57,1,.3.58-.47.06-.79-.29-1.11a7.44,7.44,0,0,1-2.37-3.72c-.53-2,1.09-2.78,2.12-3.57s1.26.82,1.76,1.42c2.39,2.85,5.56,4.91,7.78,8.25.55-2.1-.44-3.28-1.42-4.43a42.62,42.62,0,0,0-5.11-4.66c-1.37-1.18-1.19-2.61.37-4.22,1.31-1.35,2-.57,2.95.55A77.44,77.44,0,0,0,95.4,44.88a14,14,0,0,0-4.81-7,29,29,0,0,1-4.87-4.84c-.68-1-1.4-2.17-.51-3,1-1,1.58.57,2.12,1.15,7.2,7.88,14.76,15.39,22.38,22.86,1.47,1.44,3,2.82,4.47,4.24a.67.67,0,0,0,1,0c.24-.31-.12-.6-.35-.86-2.4-2.64-4.78-5.29-7.19-7.92-6-6.49-12.47-12.46-18.94-18.43-2.18-2-1.24-3.16.11-4.7,1.54,1.62,3,3.23,4.56,4.78a1.31,1.31,0,0,0,2.09.06c.77-1-.39-1.18-.85-1.54a12.19,12.19,0,0,1-3.28-3.08c-.48-.8-1.13-1.73-.48-2.63s1.79-.81,2.78-.26c.35.2.72.32.94-.07s-.21-.62-.38-.88c-.36-.57-1.84-.42-1-1.85s1.56-.64,2.34-.24a46.78,46.78,0,0,1,7.47,4.64q7.08,5.46,14.14,11A4.34,4.34,0,0,0,120,37.45v8.63c-2.22-.61-3.57-2.94-6.41-3.45C116,44.74,117.35,47.29,120,48.48ZM60.85,87.7a10.57,10.57,0,0,0,2.24,6.83c.34.44.65,1.36,1.43.8s.29-1.2,0-1.75c-1-1.71-2.28-3.24-2.63-5.3,0-.22-.7-.35-1.07-.52.11-3.69-1.74-6.48-4.07-9A13.6,13.6,0,0,0,60.85,87.7Zm8-3.88.12.07-.1,0,.08-.12c1,3.86,1.71,7.81,3.84,11.27C72.74,90.86,72.73,86.64,68.81,83.82ZM90.68,48.31A1.49,1.49,0,0,0,90.93,50c2.8,4.94,6.87,8.74,11.13,12.37.36.31.74.65,1.21.16a1.12,1.12,0,0,0,0-1.69A126.68,126.68,0,0,0,90.68,48.31ZM31.55,74.46c1.06,6.62,4,12.66,6.22,18.92C37.73,86.45,34.64,80.46,31.55,74.46Zm24.1,3.59a3.22,3.22,0,0,0,0-4.45,20.44,20.44,0,0,1-3.22-7.26c-.53-1.88-1.17-3.93-3.15-4.91l-.72.35C50.88,67.13,53.22,72.49,55.65,78.05ZM96,26.23c4.88,4.11,8.77,9.26,14,13.36C109.61,36.45,99.5,26.79,96,26.23Zm1.76,20.85c.74,2.57,8.41,10.94,12,13C106,55.5,102.71,50.55,97.74,47.08Zm20.63,4.85c-2.37-1.8-3.83-4.39-5.82-6.47-1.72-1.8-2.22-2-4.49-1.31C112.3,45.92,113.24,51.68,118.37,51.93ZM97.36,33l-.43.57a61.75,61.75,0,0,0,9.19,8.51c.47.33,1.11,1,1.65.18s-.35-.93-.71-1.26c-2-1.81-4-3.62-6.08-5.36C99.84,34.7,98.57,33.9,97.36,33Zm-9.77,33.9c-1.11-3.23-7.22-10.24-9-10.57A32.06,32.06,0,0,0,87.59,66.92ZM19.28,81.05c-1.59,2.11.25,11.32,2.95,15C22.24,90.52,19.7,86.14,19.28,81.05ZM88.89,56.13C86.1,53.68,85,49.38,81,48.27,83.46,51.09,84.87,55,88.89,56.13Zm2.48,29.46q-2.75-4.64-5.5-9.28c-.23-.37-.61-.67-1-.39A1.19,1.19,0,0,0,84.71,77C86.16,80.41,87.7,83.78,91.37,85.59Zm-34-22.16c1.12,3.57,2.31,7.16,5.33,9.74A16.13,16.13,0,0,0,57.35,63.43Zm43.12,6.25c-3-3.7-5-7.3-8.57-10.09C92.73,63,97.11,68.21,100.47,69.68Zm-32.59,13c-.5-3.39-1.63-6.49-4.51-8.66C64.24,77.23,65,80.48,67.88,82.7ZM84.1,73.82c-2.57-2.74-4.17-5.7-7.44-7.21A10.12,10.12,0,0,0,84.1,73.82Zm23.36-7.08c3.13,5.86,4.42,6.9,6.94,5.67C111.89,71,110.42,68.41,107.46,66.74ZM71.79,46.28c1,3.24,2.86,5.29,5.44,7.58A11.06,11.06,0,0,0,71.79,46.28Z" fill="none"/><path d="M.72,0H99a33.62,33.62,0,0,1-3.66,9.79c-1,1.65-2,3.21-1.58,5.4a9.56,9.56,0,0,1-4.28-2.36c-3.45-2.95-5.84-7-9.72-9.49-.41-.27,0-1.5-.9-.93s-.2,1.26.27,1.79C80.68,6,82.22,7.86,83.91,9.55c2.13,2.14,4.36,4.19,6.64,6.18.94.82,1.39,1.94.73,2.68-.9,1-1.83-.1-2.55-.78s-1-1.21-1.6-1.77a1,1,0,0,0-1.66,0c-.76.82.07,1.09.54,1.42,1.24.87,2.54,1.67,3,3.25.18.59.6,1.21-.2,1.68-.64.38-1.11,1.23-2.07.58-.35-.24-.65-.75-1.37-.44.08.34.16.71.26,1.08.26,1,1,2.05-.28,2.77s-1.93-.46-2.63-1.29a63.1,63.1,0,0,0-6.46-6.72c-.62-.55-1.18-1.34-2.26-.57a29.52,29.52,0,0,0,5.19,5.89c1.15,1.07,2.78,1.75,3.43,3.22.88,2-1.83,2.41-2.09,3.83C80,33.77,77,35.1,75.45,37.5c-.84,1.3-1.79,1.1-2.56-.17a13.52,13.52,0,0,0-.9-1.41c-.46-.59-.64-1.59-1.68-1.4a.94.94,0,0,0-.53.68,2.13,2.13,0,0,0,1.12,2c.25.2.52.37.78.56,1,.73,1.66,1.77,1,2.86s-2,1-3.24.7c-.71-.18-1.08-1.29-2.08-.77.43,1.11,1.7,2.22,1,3.29s-2.4,1-3.76,1-2.34-1-3.81-1.7c.69,2.43,2.22,4.63-1,5.74a23,23,0,0,0-10.34,6.58c-.64.76-1.35,1-1.89,0s-1.7-2.27-1.77-3.2c-.31-4.33-3.82-7.15-4.62-11.36-1.5,2.11-.65,3.85.45,5.28,2.14,2.78,2.74,6.23,4.26,9.27a2.61,2.61,0,0,1-1,3.41c-1.28.87-2-.52-2.63-1.28a13.83,13.83,0,0,1-2.78-6.44A24.1,24.1,0,0,0,35.93,43c-.67,2.5.39,4.59,1.26,6.7,1.2,2.93,2.64,5.75,3.63,8.78.67,2.06-.22,2.76-2,2.94a4.59,4.59,0,0,0-2.7.67A18.59,18.59,0,0,1,28.2,65.3a12.87,12.87,0,0,0-3.21.76c-3.32,1.72-3.29,1.76-4.28-1.9a28.88,28.88,0,0,0-2.39-7c-.39-.68-.95-1.6-1.79-1.16s0,1.25.24,1.82c1.08,2.56,2.63,5,3,7.77.16,1.2.65,2.91-.75,3.46s-3-.27-3.91-1.61a9,9,0,0,1-1.23-2.56c-.52-1.76-.82-3.58-1.34-5.33a5,5,0,0,0-1.72-3.06,3.3,3.3,0,0,0-.84-.27c-.07.29-.29.74-.17.86,1.51,1.6.84,3.9,2,5.71a13.25,13.25,0,0,1,1.83,7.55c-5.49-2.81-4.17-9.6-8.31-13a3.72,3.72,0,0,0,.42,3.54A71.36,71.36,0,0,1,9,67.47c1,2,.53,2.86-1.7,2.91a34.34,34.34,0,0,0-6.53.24ZM19.45,50.41a17.15,17.15,0,0,0-2.23-5.2,12.19,12.19,0,0,1-2.14-5c-.09-.57-.41-1.51.41-1.64,1.61-.25,2.53-1.64,3.93-2.15,1.08-.4,2.78-1,3.08.44.63,3,2.6,5.06,4.13,7.45a4.94,4.94,0,0,1,.84,4.08c-.11.4-.38.77.28,1.17,2.23,1.31,2.74,3.74,3.59,6,.38,1,.27,3,1.71,2.52s.23-2.06-.13-2.93C31,50.51,29,46,26.83,41.5c-1-2-2.61-3.67-3.46-5.7s-1.95-1.93-3.53-1.44-3,2.1-4.62,2.41c-2.86.53-2.45,2-1.78,4,1.24,3.73,3.6,6.91,4.84,10.65.61,1.85,2.46,1.77,3.66.06.81-1.16,1.34-2.59,2.89-3,.44-.12,1.09,0,1.05-.66s-.75-.71-1.3-.7a3.64,3.64,0,0,0-2.67,1.37C21.22,49.21,20.73,50.21,19.45,50.41Zm48-39.6a10,10,0,0,1,3.46,3.31c.4.5,1,1.14,1.57.68.82-.61-.12-1-.42-1.52-.62-1-2.58-2-1.57-2.91s2.27.87,3.16,1.78c1.89,1.93,3.59,4,5.5,6,1.71,1.72,2.44,1.86,4.39,1.41-5-3.32-7.74-9.19-13.62-11.59A4.31,4.31,0,0,1,67.42,10.81ZM65.27,21.28a33.46,33.46,0,0,0,9.42,10C73.14,26.52,68.6,24.45,65.27,21.28ZM75.15,5.4c0,.84-.11,1.2,0,1.43,1.71,3.28,4.88,5.08,7.55,7.39a.55.55,0,0,0,.83-.1.84.84,0,0,0-.17-1.24C80.76,10.51,78.15,8.13,75.15,5.4ZM27.06,63.58a2.76,2.76,0,0,0,.68-3.18C27,58.49,26,56.66,25.15,54.79c-.2-.44-.38-1-.95-.88-.77.15-.56.87-.52,1.38A7.71,7.71,0,0,0,25,58.82,12.16,12.16,0,0,1,27.06,63.58Zm23.66-36.1c.46,2.83,2.77,4.63,3.76,7.15a2.3,2.3,0,0,0,.6.73.78.78,0,0,0,1.05.18c.48-.32.23-.66,0-1C54.5,32.07,53.07,29.45,50.72,27.48ZM50.2,50.94c-.23-4-2-7.35-4.54-8.59C46.88,45.39,47.54,48.57,50.2,50.94Zm9.3-21.3c-.58-4.24-2.66-6.6-5-5.47C57,25.28,56.75,28.74,59.5,29.64Zm4.66,4.86c-1.09,2.13.53,3.1,1.77,4.64C66.48,36.9,64.94,35.86,64.16,34.5Z" fill="none"/><path d="M.72,70.62a34.34,34.34,0,0,1,6.53-.24c2.23,0,2.66-.86,1.7-2.91A71.36,71.36,0,0,0,5.72,60.9a3.72,3.72,0,0,1-.42-3.54c4.14,3.39,2.82,10.18,8.31,13a13.25,13.25,0,0,0-1.83-7.55c-1.14-1.81-.47-4.11-2-5.71-.12-.12.1-.57.17-.86a3.3,3.3,0,0,1,.84.27,5,5,0,0,1,1.72,3.06c.52,1.75.82,3.57,1.34,5.33a9,9,0,0,0,1.23,2.56c.94,1.34,2.44,2.2,3.91,1.61s.91-2.26.75-3.46c-.36-2.82-1.91-5.21-3-7.77-.23-.57-1.13-1.34-.24-1.82s1.4.48,1.79,1.16a28.88,28.88,0,0,1,2.39,7c1,3.66,1,3.62,4.28,1.9a12.87,12.87,0,0,1,3.21-.76,18.59,18.59,0,0,0,7.87-3.18,4.59,4.59,0,0,1,2.7-.67c1.83-.18,2.72-.88,2-2.94-1-3-2.43-5.85-3.63-8.78-.87-2.11-1.93-4.2-1.26-6.7a24.1,24.1,0,0,1,3.54,8.1,13.83,13.83,0,0,0,2.78,6.44c.63.76,1.35,2.15,2.63,1.28a2.61,2.61,0,0,0,1-3.41c-1.52-3-2.12-6.49-4.26-9.27-1.1-1.43-1.95-3.17-.45-5.28.8,4.21,4.31,7,4.62,11.36.07.93,1.15,2.13,1.77,3.2s1.25.72,1.89,0a23,23,0,0,1,10.34-6.58c3.23-1.11,1.7-3.31,1-5.74,1.47.72,2.44,1.75,3.81,1.7s3,.15,3.76-1-.53-2.18-1-3.29c1-.52,1.37.59,2.08.77,1.23.32,2.54.46,3.24-.7s0-2.13-1-2.86c-.26-.19-.53-.36-.78-.56a2.13,2.13,0,0,1-1.12-2,.94.94,0,0,1,.53-.68c1-.19,1.22.81,1.68,1.4a13.52,13.52,0,0,1,.9,1.41c.77,1.27,1.72,1.47,2.56.17,1.57-2.4,4.52-3.73,5.1-6.94.26-1.42,3-1.8,2.09-3.83-.65-1.47-2.28-2.15-3.43-3.22A29.52,29.52,0,0,1,74,17.62c1.08-.77,1.64,0,2.26.57a63.1,63.1,0,0,1,6.46,6.72c.7.83,1.24,2.09,2.63,1.29s.54-1.81.28-2.77c-.1-.37-.18-.74-.26-1.08.72-.31,1,.2,1.37.44,1,.65,1.43-.2,2.07-.58.8-.47.38-1.09.2-1.68-.48-1.58-1.78-2.38-3-3.25-.47-.33-1.3-.6-.54-1.42a1,1,0,0,1,1.66,0c.56.56,1,1.23,1.6,1.77s1.65,1.78,2.55.78c.66-.74.21-1.86-.73-2.68-2.28-2-4.51-4-6.64-6.18C82.22,7.86,80.68,6,79.1,4.23,78.63,3.7,78,3,78.83,2.44s.49.66.9.93c3.88,2.5,6.27,6.54,9.72,9.49a9.56,9.56,0,0,0,4.28,2.36c-.42-2.19.58-3.75,1.58-5.4A33.62,33.62,0,0,0,99,0h3.81a8.58,8.58,0,0,1-.63,2.28c-1.54,4.83-4.6,9-6.19,13.78-.3.92-.55,1.45.43,2.18,5.5,4.11,10.83,8.46,16.44,12.42,2.34,1.64,4.16,4.12,7.12,4.84v1.92a4.34,4.34,0,0,1-2.73-1.07q-7.06-5.51-14.14-11a46.78,46.78,0,0,0-7.47-4.64c-.78-.4-1.52-1.07-2.34.24s.6,1.28,1,1.85c.17.26.5.41.38.88s-.59.27-.94.07c-1-.55-2-.76-2.78.26s0,1.83.48,2.63a12.19,12.19,0,0,0,3.28,3.08c.46.36,1.62.58.85,1.54a1.31,1.31,0,0,1-2.09-.06c-1.54-1.55-3-3.16-4.56-4.78-1.35,1.54-2.29,2.68-.11,4.7,6.47,6,13,11.94,18.94,18.43,2.41,2.63,4.79,5.28,7.19,7.92.23.26.59.55.35.86a.67.67,0,0,1-1,0c-1.49-1.42-3-2.8-4.47-4.24-7.62-7.47-15.18-15-22.38-22.86-.54-.58-1.08-2.13-2.12-1.15-.89.83-.17,2,.51,3a29,29,0,0,0,4.87,4.84,14,14,0,0,1,4.81,7A77.44,77.44,0,0,1,85.07,34.56c-.91-1.12-1.64-1.9-2.95-.55-1.56,1.61-1.74,3-.37,4.22a42.62,42.62,0,0,1,5.11,4.66c1,1.15,2,2.33,1.42,4.43-2.22-3.34-5.39-5.4-7.78-8.25-.5-.6-.84-2.12-1.76-1.42s-2.65,1.57-2.12,3.57A7.44,7.44,0,0,0,79,44.94c.35.32.87.64.29,1.11-.34.27-.72,0-1-.3a11,11,0,0,0-2-2c-1.34-.88-2.83-1.86-3.74.59a2.31,2.31,0,0,1-2,1.5c-4.14.4-6.41,4.18-10,5.57-1.16.45-1,1.86,0,2.57a6.29,6.29,0,0,1,2,2.85,68.46,68.46,0,0,0,5.91,10.28,14.2,14.2,0,0,1,2.35,5.26,1.5,1.5,0,0,1-1.9-1c-2.16-4.87-5.49-9.08-7.61-14-.61-1.41-1.83-2.51-2.44-4-.26-.63-.77-.62-1.31,0a14.15,14.15,0,0,1-1.68,1.26c-1.24,1-1.75,2-.56,3.39.67.8,1.49,1.65,1.16,3.13-1.18-1-2.11-2-3.2-2.72-1.66-1.15-3.28-1.11-4.56.68a1.71,1.71,0,0,1-1.57,1c-2,.11-3,2.89-1.88,4.69a2.64,2.64,0,0,1,.47,1c.57,4.78,3,8.85,4.92,13.13,1.19,2.67,2.28,5.39,1.51,8.44-2.64-7.3-6.26-14.2-8.35-21.69-.26-.94-.28-1.9-1.67-1.83-1.73.09-3.71-.33-4.89,1.15-.46.6-.11,2.25.4,3.11.67,1.15.12,2.13.15,3.17l.06-.06c-.7-1.85-1.43-3.72-3.49-4.43-2.34-.81-3.75.1-4.28,2.6-1.6-1.06-5-1-6.15.3-.94,1.09-.15,2.4.28,3.58s1.56,2.41-.29,3.72c-.4-1.28-1.09-2.23-1.21-3.63-.25-2.75-2.59-1.62-4.13-1.78-1.84-.18-1.47,1.37-1.37,2.32a17.1,17.1,0,0,0,1,3.17c.35,1.16.58,2.32-1,3.3-.26-1.54-.45-2.91-.72-4.26-.33-1.64-1.34-2.6-3-2.28s-1.89,1.73-1.77,3.17a11,11,0,0,0,1.27,3.33c.58,1.35,1.35,2.68.88,4.79a11.31,11.31,0,0,1-3.26-7.39c-.19-4.23-.11-4.23-4.23-3.85-2.92.27-3.58.21-5.59-.58" fill="#1b2f43"/><path d="M120,35.53c-3-.72-4.78-3.2-7.12-4.84-5.61-4-10.94-8.31-16.44-12.42-1-.73-.73-1.26-.43-2.18,1.59-4.81,4.65-8.95,6.19-13.78A8.58,8.58,0,0,0,102.78,0c5.25,0,10.5.05,15.74,0,1.2,0,1.47.27,1.47,1.47C119.93,12.82,120,24.18,120,35.53Z" fill="none"/><path d="M28.86,97.89A14.92,14.92,0,0,1,27.93,92,14.55,14.55,0,0,0,26,83a8.43,8.43,0,0,1-1.15-5c1.54.92,2,2.29,2.43,3.66,1,2.85,2.27,5.62,3,8.54.61,2.49.12,5.12-.43,7.65Z" fill="#1b2f43"/><path d="M13.59,97.89c.91-2.78,0-5.57.05-8.35,0-1.26-.05-2.55,1.07-3.52,1.43,2.3,1.47,9.38.79,11.87Z" fill="#1b2f43"/><path d="M120,48.48c-3-1.38-4.24-4-6.41-5.85,2.84.51,4.19,2.84,6.41,3.45Z" fill="#1b2f43"/><path d="M90.16,48.31A125.61,125.61,0,0,1,102.7,60.83a1.11,1.11,0,0,1,0,1.69c-.47.49-.84.15-1.21-.16C97.29,58.73,93.22,54.93,90.41,50A1.5,1.5,0,0,1,90.16,48.31Z" fill="#1b2f43"/><path d="M37.76,71.22c.59-.42,1-.28,1.26.4,2.09,4.93,4.76,9.61,6.46,14.73a9.67,9.67,0,0,1,.36,5.5c-2.76-7.09-6.45-13.47-8-20.69Z" fill="#1b2f43"/><path d="M31.55,74.46c3.09,6,6.18,12,6.22,18.92C35.54,87.12,32.61,81.08,31.55,74.46Z" fill="#1b2f43"/><path d="M55.65,78.05l-7.1-16.27.72-.35c2,1,2.62,3,3.15,4.91a20.44,20.44,0,0,0,3.22,7.26A3.22,3.22,0,0,1,55.65,78.05Z" fill="#1b2f43"/><path d="M95.46,26.23c3.52.56,13.63,10.22,14,13.36C104.24,35.49,100.34,30.34,95.46,26.23Z" fill="#1b2f43"/><path d="M97.74,47.08c4.63,3.24,8.07,8.16,12,13C106.15,58,98.48,49.65,97.74,47.08Z" fill="#1b2f43"/><path d="M117.85,51.93c-5.13-.25-6.06-6-10.31-7.78,2.27-.65,2.77-.49,4.49,1.31C114,47.54,115.48,50.13,117.85,51.93Z" fill="#1b2f43"/><path d="M97.36,33c1.21.88,2.48,1.68,3.62,2.64,2.07,1.74,4.07,3.55,6.08,5.36.36.33,1.18.58.71,1.26s-1.18.15-1.65-.18a59.23,59.23,0,0,1-9.19-8.51Z" fill="#1b2f43"/><path d="M87.59,66.92a32.06,32.06,0,0,1-9-10.57C78.9,56.4,86.57,64,87.59,66.92Z" fill="#1b2f43"/><path d="M19.28,81.05c.42,5.09,3,9.47,2.95,15C19.53,92.37,17.69,83.16,19.28,81.05Z" fill="#1b2f43"/><path d="M68.81,83.82c3.92,2.82,3.93,7,3.94,11.26-2.28-3.71-2.88-7.5-3.84-11.27Z" fill="#1b2f43"/><path d="M88.89,56.13c-5.86-1.69-5-4.51-7.88-7.86C85,49.38,86.1,53.68,88.89,56.13Z" fill="#1b2f43"/><path d="M90.86,85.59c-3.68-1.81-5.21-5.18-6.66-8.6a1.13,1.13,0,0,1,.21-1.07c.34-.28.72,0,.94.39Z" fill="#1b2f43"/><path d="M56.83,63.43a16.14,16.14,0,0,1,5.34,9.74C59.14,70.59,58,67,56.83,63.43Z" fill="#1b2f43"/><path d="M100,69.68c-3.36-1.47-7.73-6.71-8.57-10.09C95,62.38,97,66,100,69.68Z" fill="#1b2f43"/><path d="M67.88,82.7c-4.62-3.59-3.27-4.1-4.51-8.66C66.25,76.21,67.38,79.31,67.88,82.7Z" fill="#1b2f43"/><path d="M84.1,73.82a10.12,10.12,0,0,1-7.44-7.21C77.49,67,82.59,72.21,84.1,73.82Z" fill="#1b2f43"/><path d="M60.85,87.7a13.6,13.6,0,0,1-4.12-9c1,1.09,4.13,6.82,4.07,9Z" fill="#1b2f43"/><path d="M107,66.74c3,1.67,4.42,4.24,6.93,5.67C111.36,73.64,110.07,72.6,107,66.74Z" fill="#1b2f43"/><path d="M60.8,87.76c.37.17,1,.3,1.07.52.35,2.06,1.66,3.59,2.63,5.3.31.55.65,1.31,0,1.75s-1.09-.36-1.43-.8c-2.9-3.74-2.31-2.54-2.24-6.83Z" fill="#1b2f43"/><path d="M71.27,46.28a11.1,11.1,0,0,1,5.45,7.58C74.13,51.57,72.27,49.52,71.27,46.28Z" fill="#1b2f43"/><path d="M68.91,83.81l-.08.12.1,0-.12-.07Z" fill="#f2f1f1"/><path d="M19.45,50.41c1.28-.2,1.77-1.2,2.46-1.93a3.64,3.64,0,0,1,2.67-1.37c.55,0,1.24,0,1.3.7s-.61.54-1.05.66c-1.55.43-2.08,1.86-2.89,3-1.2,1.71-3.05,1.79-3.66-.06-1.24-3.74-3.6-6.92-4.84-10.65-.67-2-1.08-3.48,1.78-4,1.66-.31,2.92-1.88,4.62-2.41s2.71-.54,3.53,1.44,2.5,3.71,3.46,5.7C29,46,31,50.51,32.92,55.08c.36.87,1.45,2.52.13,2.93s-1.33-1.54-1.71-2.52c-.85-2.21-1.36-4.64-3.59-6-.66-.4-.39-.77-.28-1.17a4.94,4.94,0,0,0-.84-4.08c-1.53-2.39-3.5-4.46-4.13-7.45-.3-1.42-2-.84-3.08-.44-1.4.51-2.32,1.9-3.93,2.15-.82.13-.5,1.07-.41,1.64a12.19,12.19,0,0,0,2.14,5A17.15,17.15,0,0,1,19.45,50.41Z" fill="#1b2f43"/><path d="M66.91,10.81a4.29,4.29,0,0,0,2.46-2.87C75.25,10.34,78,16.21,83,19.53c-1.95.45-2.68.31-4.39-1.41-1.9-1.92-3.6-4-5.5-6-.89-.91-2.17-2.67-3.15-1.78s1,1.92,1.56,2.91c.3.49,1.24.91.42,1.52-.62.46-1.16-.18-1.57-.68A10.09,10.09,0,0,0,66.91,10.81Z" fill="#1b2f43"/><path d="M64.75,21.28c3.33,3.17,7.88,5.24,9.42,10A33.58,33.58,0,0,1,64.75,21.28Z" fill="#1b2f43"/><path d="M74.63,5.4c3,2.73,5.61,5.11,8.23,7.48A.84.84,0,0,1,83,14.12a.55.55,0,0,1-.83.1c-2.66-2.31-5.83-4.11-7.55-7.39C74.53,6.6,74.63,6.24,74.63,5.4Z" fill="#1b2f43"/><path d="M26.54,63.58a12.16,12.16,0,0,0-2.07-4.76,7.71,7.71,0,0,1-1.31-3.53c0-.51-.25-1.23.52-1.38.57-.11.75.44,1,.88.86,1.87,1.83,3.7,2.58,5.61A2.74,2.74,0,0,1,26.54,63.58Z" fill="#1b2f43"/><path d="M50.2,27.48c2.35,2,3.78,4.59,5.42,7.06.22.34.47.68,0,1a.78.78,0,0,1-1-.18,2.3,2.3,0,0,1-.6-.73C53,32.11,50.66,30.31,50.2,27.48Z" fill="#1b2f43"/><path d="M50.2,50.94c-4.8-4.29-2.56-3.63-4.54-8.59C48.2,43.59,50,47,50.2,50.94Z" fill="#1b2f43"/><path d="M59,29.64c-2.75-.9-2.53-4.36-5-5.47C56.32,23,58.4,25.4,59,29.64Z" fill="#1b2f43"/><path d="M64.16,34.5c-.19-.32,1.9,4.08,1.77,4.64C64.69,37.6,63.07,36.63,64.16,34.5Z" fill="#1b2f43"/><line x1="0.72" y1="73.24" x2="1.65" y2="73.58" fill="#f2f1f1"/></svg>
