<svg id="b2108bd7-ae63-412c-b073-f2fda5eecad9" data-name="UMP-Logo-gray-2 Image" xmlns="http://www.w3.org/2000/svg" viewBox="0 0 45.98 108"><title>University of Michigan Press Logo</title><path d="M46,108.56H0V.56H46Zm-26-45h6.15c0-.14,0-.26,0-.38V52.77a1.77,1.77,0,0,0,0-.23c0-.13.06-.2.18-.25a9.61,9.61,0,0,0,.91-.45,8.54,8.54,0,0,0,4.38-7.55,8.64,8.64,0,0,0-.47-2.72,8.57,8.57,0,0,0-4.68-5c-.36-.16-.31-.13-.31-.5,0-1.8,0-3.6,0-5.41A6,6,0,0,0,26,29.11a3.72,3.72,0,0,0-2.76-2.75,6.59,6.59,0,0,0-1.65-.25c-.51,0-1,0-1.58,0V36.2a.24.24,0,0,1-.18.27,8.47,8.47,0,0,0-5.28,8.17,8.17,8.17,0,0,0,.3,2,8.48,8.48,0,0,0,2.75,4.26,8.21,8.21,0,0,0,2.19,1.34.29.29,0,0,1,.22.36V63.2C20,63.32,20,63.44,20,63.58ZM2,106.24H14.94v-1.48H11.67q0-9.21,0-18.36c0-6.12.08-12.23,0-18.34-1.71.19-3.39.42-5.06.57s-3.36.21-5,.31v1.62c.54,0,1,0,1.54,0a2.06,2.06,0,0,1,1.23.35,2.06,2.06,0,0,1,.77,1.37,8.67,8.67,0,0,1,.12,1.24c0,.51,0,1,0,1.53v29.19c0,.1,0,.21,0,.31a1,1,0,0,1,0,.21H2ZM13.7,70.58l.28,0c.25,0,.5-.11.75-.13a7,7,0,0,1,3.16.49,2.83,2.83,0,0,1,1.77,2,5.75,5.75,0,0,1,.15,1.37v30.13a1.33,1.33,0,0,1,0,.2c0,.06,0,.12,0,.21H16.63v1.47H29.45v-1.48H26.24V79.46c0-1.41,0-2.82-.11-4.22a11.89,11.89,0,0,0-.63-3.18,5.12,5.12,0,0,0-3.08-3.12,8.23,8.23,0,0,0-2.19-.52,7.85,7.85,0,0,0-2.56,0,8.42,8.42,0,0,0-2.7,1A4.37,4.37,0,0,0,13.7,70.58Zm27.2,34.19v-.47q0-12.73,0-25.48c0-.65,0-1.3,0-1.95s0-1.36-.11-2A10.45,10.45,0,0,0,40.12,72a5.14,5.14,0,0,0-1.6-2.2,6.09,6.09,0,0,0-2.25-1.08,10.76,10.76,0,0,0-2.12-.33,7.06,7.06,0,0,0-1.3,0,8,8,0,0,0-2.26.59,5.12,5.12,0,0,0-1.94,1.29,3.92,3.92,0,0,0-.25.32,1.67,1.67,0,0,0,.4,0c.45,0,.89-.12,1.34-.13a7.61,7.61,0,0,1,1.07.11,5.89,5.89,0,0,1,1.52.45,2.81,2.81,0,0,1,1.5,1.58,4.71,4.71,0,0,1,.25,1.58v30.45c0,.06,0,.12,0,.19H31.26v1.47h12.8v-1.47Zm-.24-41.19c0-.15,0-.29,0-.43V30.87a6.52,6.52,0,0,0-.24-1.81,3.68,3.68,0,0,0-2.72-2.69,7.87,7.87,0,0,0-2.41-.27l-.81,0V63.58Zm-35-37.42V63.57h6.14v-.41q0-16.24,0-32.5a6.21,6.21,0,0,0-.13-1.29,3.84,3.84,0,0,0-1.38-2.31,4.51,4.51,0,0,0-1.88-.81A9.08,9.08,0,0,0,5.64,26.16ZM7.37,8.65c.32.06,31.5.06,31.72,0l-.21-.1L33.59,6.32,28.38,4.13l-4.72-2a.43.43,0,0,0-.35,0c-1,.43-2.06.84-3.09,1.26L15.9,5.17,11.5,7l-3,1.22ZM25.2,21a1.41,1.41,0,0,0,0-.18c0-1.65,0-3.29,0-4.94a3.1,3.1,0,0,0-.4-1.48A2.83,2.83,0,0,0,22.58,13,12.62,12.62,0,0,0,21,12.93a2,2,0,0,0-.26,0c-.05.42,0,7.84,0,8.06ZM11.78,21V20.7c0-1.41,0-2.83,0-4.25a7.08,7.08,0,0,0-.11-1.12,2.72,2.72,0,0,0-2.05-2.22,6.91,6.91,0,0,0-2.22-.18L7.22,13v8Zm22.76,0c.34.07,4.31,0,4.55,0v-.32c0-1.44,0-2.89,0-4.33a5.21,5.21,0,0,0-.14-1.18,2.74,2.74,0,0,0-2.07-2.07,7.42,7.42,0,0,0-2.1-.16,2.23,2.23,0,0,0-.23,0Z" fill="none"/><path d="M20,63.58c0-.14,0-.26,0-.38V52.63a.29.29,0,0,0-.22-.36,8.21,8.21,0,0,1-2.19-1.34,8.48,8.48,0,0,1-2.75-4.26,8.17,8.17,0,0,1-.3-2,8.53,8.53,0,0,1,5.28-8.17A.24.24,0,0,0,20,36.2V26.14c.55,0,1.07-.06,1.58,0a6.59,6.59,0,0,1,1.65.25A3.72,3.72,0,0,1,26,29.11a6,6,0,0,1,.19,1.51c0,1.81,0,3.61,0,5.41,0,.37-.05.34.31.5a8.57,8.57,0,0,1,4.68,5,8.64,8.64,0,0,1,.47,2.72,8.54,8.54,0,0,1-4.38,7.55,9.61,9.61,0,0,1-.91.45c-.12.05-.19.12-.18.25a1.77,1.77,0,0,1,0,.23V63.2c0,.12,0,.24,0,.38Zm-1.7-19.2a4.77,4.77,0,1,0,4.82-4.77A4.78,4.78,0,0,0,18.3,44.38Z" fill="#f3f3f3"/><path d="M2,106.24v-1.47H5.2a1,1,0,0,0,0-.21c0-.1,0-.21,0-.31V75.06c0-.51,0-1,0-1.53a8.67,8.67,0,0,0-.12-1.24,2.06,2.06,0,0,0-.77-1.37,2.06,2.06,0,0,0-1.23-.35c-.5,0-1,0-1.54,0V68.94c1.66-.1,3.34-.17,5-.31s3.35-.38,5.06-.57c.05,6.11,0,12.22,0,18.34s0,12.22,0,18.36h3.27v1.48Z" fill="#f3f3f3"/><path d="M13.7,70.58A4.37,4.37,0,0,1,15,69.41a8.42,8.42,0,0,1,2.7-1,7.85,7.85,0,0,1,2.56,0,8.23,8.23,0,0,1,2.19.52,5.12,5.12,0,0,1,3.08,3.12,11.89,11.89,0,0,1,.63,3.18c.12,1.4.11,2.81.11,4.22v25.3h3.21v1.48H16.63v-1.47h3.15c0-.09,0-.15,0-.21a1.33,1.33,0,0,0,0-.2V74.23a5.75,5.75,0,0,0-.15-1.37,2.83,2.83,0,0,0-1.77-2,7,7,0,0,0-3.16-.49c-.25,0-.5.09-.75.13Z" fill="#f3f3f3"/><path d="M40.9,104.77h3.16v1.47H31.26v-1.47h3.18c0-.07,0-.13,0-.19V74.12a4.71,4.71,0,0,0-.25-1.58A2.81,2.81,0,0,0,32.73,71a5.89,5.89,0,0,0-1.52-.45,7.61,7.61,0,0,0-1.07-.11c-.45,0-.89.08-1.34.13a1.67,1.67,0,0,1-.4,0,3.92,3.92,0,0,1,.25-.32,5.12,5.12,0,0,1,1.94-1.29,8,8,0,0,1,2.26-.59,7.06,7.06,0,0,1,1.3,0,10.76,10.76,0,0,1,2.12.33,6.09,6.09,0,0,1,2.25,1.08,5.14,5.14,0,0,1,1.6,2.2,10.45,10.45,0,0,1,.64,2.89c.06.67.11,1.35.11,2s0,1.3,0,1.95q0,12.75,0,25.48Z" fill="#f3f3f3"/><path d="M40.66,63.58H34.5V26.15l.81,0a7.87,7.87,0,0,1,2.41.27,3.68,3.68,0,0,1,2.72,2.69,6.52,6.52,0,0,1,.24,1.81V63.15C40.68,63.29,40.67,63.43,40.66,63.58Z" fill="#f3f3f3"/><path d="M5.64,26.16a9.08,9.08,0,0,1,2.76.09,4.51,4.51,0,0,1,1.88.81,3.84,3.84,0,0,1,1.38,2.31,6.21,6.21,0,0,1,.13,1.29q0,16.26,0,32.5v.41H5.64Z" fill="#f3f3f3"/><path d="M7.37,8.65l1.14-.47L11.5,7l4.4-1.79L20.22,3.4c1-.42,2.06-.83,3.09-1.26a.43.43,0,0,1,.35,0l4.72,2,5.21,2.19,5.29,2.23.21.1C38.87,8.71,7.69,8.71,7.37,8.65Z" fill="#f3f3f3"/><path d="M25.2,21H20.71c-.06-.22-.07-7.64,0-8.06a2,2,0,0,1,.26,0,12.62,12.62,0,0,1,1.63.07,2.83,2.83,0,0,1,2.23,1.43,3.1,3.1,0,0,1,.4,1.48c0,1.65,0,3.29,0,4.94A1.41,1.41,0,0,1,25.2,21Z" fill="#f3f3f3"/><path d="M11.78,21H7.22V13l.18-.06a6.91,6.91,0,0,1,2.22.18,2.72,2.72,0,0,1,2.05,2.22,7.08,7.08,0,0,1,.11,1.12c0,1.42,0,2.84,0,4.25Z" fill="#f3f3f3"/><path d="M34.54,21V13a2.23,2.23,0,0,1,.23,0,7.42,7.42,0,0,1,2.1.16,2.74,2.74,0,0,1,2.07,2.07,5.21,5.21,0,0,1,.14,1.18c0,1.44,0,2.89,0,4.33V21C38.85,21.06,34.88,21.08,34.54,21Z" fill="#f3f3f3"/><path d="M18.3,44.38A4.77,4.77,0,1,1,23,49.15,4.79,4.79,0,0,1,18.3,44.38Z" fill="none"/>
</svg>
